<svg id="visual" viewBox="0 0 900 600" width="900" height="600" xmlns="http://www.w3.org/2000/svg" xmlns:xlink="http://www.w3.org/1999/xlink" version="1.1"><rect x="0" y="0" width="900" height="600" fill="#f3effb"></rect><defs><linearGradient id="grad1_0" x1="33.3%" y1="0%" x2="100%" y2="100%"><stop offset="20%" stop-color="#f3effb" stop-opacity="1"></stop><stop offset="80%" stop-color="#f3effb" stop-opacity="1"></stop></linearGradient></defs><defs><linearGradient id="grad2_0" x1="0%" y1="0%" x2="66.7%" y2="100%"><stop offset="20%" stop-color="#f3effb" stop-opacity="1"></stop><stop offset="80%" stop-color="#f3effb" stop-opacity="1"></stop></linearGradient></defs><g transform="translate(900, 0)"><path d="M0 432.7C-83.5 425.9 -167.1 419.1 -216.3 374.7C-265.6 330.3 -280.6 248.2 -310.9 179.5C-341.2 110.8 -387 55.4 -432.7 0L0 0Z" fill="#6b32cd"></path></g><g transform="translate(0, 600)"><path d="M0 -432.7C80.9 -424.4 161.8 -416.1 216.3 -374.7C270.9 -333.3 299.2 -259 330.8 -191C362.5 -123 397.6 -61.5 432.7 0L0 0Z" fill="#6b32cd"></path></g></svg>