<svg id="visual" viewBox="0 0 900 600" width="900" height="600" xmlns="http://www.w3.org/2000/svg" xmlns:xlink="http://www.w3.org/1999/xlink" version="1.1"><rect x="0" y="0" width="900" height="600" fill="#f3effb"></rect><path d="M0 248L7.8 231.5C15.7 215 31.3 182 47.2 179.2C63 176.3 79 203.7 94.8 211.2C110.7 218.7 126.3 206.3 142 186C157.7 165.7 173.3 137.3 189.2 143.5C205 149.7 221 190.3 236.8 196.5C252.7 202.7 268.3 174.3 284.2 153.2C300 132 316 118 331.8 139.7C347.7 161.3 363.3 218.7 379 248.7C394.7 278.7 410.3 281.3 426.2 261.5C442 241.7 458 199.3 473.8 195C489.7 190.7 505.3 224.3 521 237.3C536.7 250.3 552.3 242.7 568.2 220C584 197.3 600 159.7 615.8 160.2C631.7 160.7 647.3 199.3 663.2 202.3C679 205.3 695 172.7 710.8 175C726.7 177.3 742.3 214.7 758 220.5C773.7 226.3 789.3 200.7 805.2 187.7C821 174.7 837 174.3 852.8 192C868.7 209.7 884.3 245.3 892.2 263.2L900 281L900 0L892.2 0C884.3 0 868.7 0 852.8 0C837 0 821 0 805.2 0C789.3 0 773.7 0 758 0C742.3 0 726.7 0 710.8 0C695 0 679 0 663.2 0C647.3 0 631.7 0 615.8 0C600 0 584 0 568.2 0C552.3 0 536.7 0 521 0C505.3 0 489.7 0 473.8 0C458 0 442 0 426.2 0C410.3 0 394.7 0 379 0C363.3 0 347.7 0 331.8 0C316 0 300 0 284.2 0C268.3 0 252.7 0 236.8 0C221 0 205 0 189.2 0C173.3 0 157.7 0 142 0C126.3 0 110.7 0 94.8 0C79 0 63 0 47.2 0C31.3 0 15.7 0 7.8 0L0 0Z" fill="#6b32cd" stroke-linecap="round" stroke-linejoin="miter"></path></svg>