<svg viewBox="0 0 100 100" xmlns="http://www.w3.org/2000/svg"><path d="M81,67Q77,84,59,87.5Q41,91,26.5,79.5Q12,68,10,49Q8,30,25,22.5Q42,15,58.5,16.5Q75,18,80,34Q85,50,81,67Z" stroke="none" stroke-width="0" fill="#dfd6e5"/><path d="M83,67Q77,84,59,86.5Q41,89,26.5,78.5Q12,68,14.5,51Q17,34,29,22.5Q41,11,58,15Q75,19,82,34.5Q89,50,83,67Z" stroke="none" stroke-width="0" fill="#ddd4e5"/><path d="M88,68Q78,86,59,90.5Q40,95,28.5,80.5Q17,66,17.5,50.5Q18,35,29.5,23.5Q41,12,60,12.5Q79,13,88.5,31.5Q98,50,88,68Z" stroke="none" stroke-width="0" fill="#dbd2e5"/><path d="M80,65Q74,80,56.5,88.5Q39,97,26,82.5Q13,68,12.5,50Q12,32,26,20Q40,8,56,15Q72,22,79,36Q86,50,80,65Z" stroke="none" stroke-width="0" fill="#d9d0e5"/><path d="M89.5,68Q79,86,59.5,90.5Q40,95,25.5,82Q11,69,10.5,50Q10,31,26,23Q42,15,61,14Q80,13,90,31.5Q100,50,89.5,68Z" stroke="none" stroke-width="0" fill="#d7cee5"/><path d="M78.5,64Q72,78,55.5,88Q39,98,22.5,84.5Q6,71,6,50Q6,29,23.5,20Q41,11,57,16.5Q73,22,79,36Q85,50,78.5,64Z" stroke="none" stroke-width="0" fill="#d5cce5"/><path d="M83,65Q74,80,57,86.5Q40,93,25.5,81Q11,69,11,50Q11,31,26,21.5Q41,12,58,15Q75,18,83.5,34Q92,50,83,65Z" stroke="none" stroke-width="0" fill="#d3cae5"/><path d="M78.5,64Q72,78,55.5,88Q39,98,22.5,84.5Q6,71,6,50Q6,29,23.5,20Q41,11,57,16.5Q73,22,79,36Q85,50,78.5,64Z" stroke="none" stroke-width="0" fill="#d1c8e5"/><path d="M80.5,66Q75,82,57,90Q39,98,26,83Q13,68,15,51Q17,34,28.5,19.5Q40,5,60,8.5Q80,12,83,31Q86,50,80.5,66Z" stroke="none" stroke-width="0" fill="#cfc6e5"/><path d="M87,66.5Q76,83,58,88.5Q40,94,28.5,80Q17,66,13.5,48.5Q10,31,25,19Q40,7,57,13.5Q74,20,86,35Q98,50,87,66.5Z" stroke="none" stroke-width="0" fill="#cdc4e5"/><path d="M86,65Q74,80,58,82.5Q42,85,29,75.5Q16,66,17,50Q18,34,28.5,18.5Q39,3,56.5,11.5Q74,20,86,35Q98,50,86,65Z" stroke="none" stroke-width="0" fill="#cbc2e5"/><path d="M80.5,65Q74,80,58,83.5Q42,87,23.5,79.5Q5,72,9,52Q13,32,27.5,23.5Q42,15,57,18.5Q72,22,79.5,36Q87,50,80.5,65Z" stroke="none" stroke-width="0" fill="#c9c0e5"/><path d="M84.5,69Q80,88,60.5,89Q41,90,28,78.5Q15,67,10.5,48Q6,29,23,18.5Q40,8,59.5,11Q79,14,84,32Q89,50,84.5,69Z" stroke="none" stroke-width="0" fill="#c7bee5"/><path d="M86.5,68.5Q79,87,59.5,91Q40,95,25,82Q10,69,8,49Q6,29,23,17Q40,5,58,11Q76,17,85,33.5Q94,50,86.5,68.5Z" stroke="none" stroke-width="0" fill="#c5bce5"/><path d="M88.5,68Q79,86,59,92Q39,98,26,83Q13,68,14,50.5Q15,33,27,18Q39,3,56.5,11Q74,19,86,34.5Q98,50,88.5,68Z" stroke="none" stroke-width="0" fill="#c3bae5"/><path d="M84,67Q77,84,58,90.5Q39,97,24,83.5Q9,70,11.5,51.5Q14,33,27,18.5Q40,4,58,10.5Q76,17,83.5,33.5Q91,50,84,67Z" stroke="none" stroke-width="0" fill="#c1b8e5"/><path d="M81.5,65Q74,80,57,87Q40,94,25,81.5Q10,69,10.5,50Q11,31,25.5,17.5Q40,4,59.5,8.5Q79,13,84,31.5Q89,50,81.5,65Z" stroke="none" stroke-width="0" fill="#bfb6e5"/><path d="M81.5,64.5Q73,79,56,88.5Q39,98,27.5,82Q16,66,14,49Q12,32,26.5,22Q41,12,60,12.5Q79,13,84.5,31.5Q90,50,81.5,64.5Z" stroke="none" stroke-width="0" fill="#bdb4e5"/><path d="M79.5,64Q73,78,57.5,82Q42,86,27.5,77Q13,68,10.5,49Q8,30,24.5,21Q41,12,59.5,13.5Q78,15,82,32.5Q86,50,79.5,64Z" stroke="none" stroke-width="0" fill="#bbb2e5"/><path d="M82.5,66.5Q76,83,59,84Q42,85,27,76.5Q12,68,9,48.5Q6,29,23.5,19.5Q41,10,58,14Q75,18,82,34Q89,50,82.5,66.5Z" stroke="none" stroke-width="0" fill="#b9b0e5"/><path d="M84.5,65Q74,80,57,87.5Q40,95,24.5,82.5Q9,70,13,52Q17,34,28.5,19.5Q40,5,59.5,9.5Q79,14,87,32Q95,50,84.5,65Z" stroke="none" stroke-width="0" fill="#b7aee5"/><path d="M87.5,66Q76,82,57.5,90Q39,98,24,84Q9,70,9.5,50.5Q10,31,26,22.5Q42,14,58,17.5Q74,21,86.5,35.5Q99,50,87.5,66Z" stroke="none" stroke-width="0" fill="#b5ace5"/><path d="M80.5,64Q72,78,57,82Q42,86,25.5,78Q9,70,7.5,49.5Q6,29,22.5,16Q39,3,56.5,11.5Q74,20,81.5,35Q89,50,80.5,64Z" stroke="none" stroke-width="0" fill="#b3aae5"/><path d="M87,68Q79,86,60,87.5Q41,89,24.5,79.5Q8,70,10,51Q12,32,26.5,21Q41,10,57,16Q73,22,84,36Q95,50,87,68Z" stroke="none" stroke-width="0" fill="#b1a8e5"/><path d="M84,67Q77,84,59,87Q41,90,26,79.5Q11,69,13,51Q15,33,27.5,18.5Q40,4,59,9.5Q78,15,84.5,32.5Q91,50,84,67Z" stroke="none" stroke-width="0" fill="#afa6e5"/><path d="M82.5,67.5Q78,85,59,89Q40,93,25.5,81Q11,69,13,51Q15,33,28.5,23.5Q42,14,60,14.5Q78,15,82.5,32.5Q87,50,82.5,67.5Z" stroke="none" stroke-width="0" fill="#ada4e5"/><path d="M79,64Q72,78,56,87Q40,96,25.5,82.5Q11,69,11.5,50.5Q12,32,25.5,17Q39,2,56,12Q73,22,79.5,36Q86,50,79,64Z" stroke="none" stroke-width="0" fill="#aba2e5"/><path d="M85,69.5Q81,89,61.5,87Q42,85,25.5,77.5Q9,70,7,49.5Q5,29,23.5,22Q42,15,60.5,14Q79,13,84,31.5Q89,50,85,69.5Z" stroke="none" stroke-width="0" fill="#a9a0e5"/><path d="M89.5,69Q81,88,60.5,90.5Q40,93,26.5,80.5Q13,68,11.5,49.5Q10,31,25.5,21Q41,11,58.5,14.5Q76,18,87,34Q98,50,89.5,69Z" stroke="none" stroke-width="0" fill="#a79ee5"/><path d="M85,64Q73,78,57,84.5Q41,91,26.5,79.5Q12,68,10,49Q8,30,25,21.5Q42,13,59,15.5Q76,18,86.5,34Q97,50,85,64Z" stroke="none" stroke-width="0" fill="#a59ce5"/><path d="M89,69Q80,88,60,90.5Q40,93,25,81Q10,69,11,50.5Q12,32,26,19Q40,6,57.5,12.5Q75,19,86.5,34.5Q98,50,89,69Z" stroke="none" stroke-width="0" fill="#a39ae5"/><path d="M83.5,65.5Q75,81,58.5,84Q42,87,28.5,77Q15,67,10,47.5Q5,28,22,15Q39,2,59,8Q79,14,85.5,32Q92,50,83.5,65.5Z" stroke="none" stroke-width="0" fill="#a198e5"/><path d="M85.5,67.5Q78,85,58.5,91.5Q39,98,27.5,82Q16,66,12.5,48Q9,30,24,16Q39,2,58,9Q77,16,85,33Q93,50,85.5,67.5Z" stroke="none" stroke-width="0" fill="#9f96e5"/><path d="M85,66.5Q76,83,58.5,87Q41,91,27.5,79Q14,67,14.5,50Q15,33,28,21Q41,9,58,13.5Q75,18,84.5,34Q94,50,85,66.5Z" stroke="none" stroke-width="0" fill="#9d94e5"/><path d="M89,68.5Q79,87,60,87.5Q41,88,23,80Q5,72,7,51Q9,30,24,16.5Q39,3,58.5,9Q78,15,88.5,32.5Q99,50,89,68.5Z" stroke="none" stroke-width="0" fill="#9b92e5"/><path d="M85,65Q74,80,57,86Q40,92,25.5,80.5Q11,69,14,51.5Q17,34,29,23Q41,12,59.5,13Q78,14,87,32Q96,50,85,65Z" stroke="none" stroke-width="0" fill="#9990e5"/><path d="M85,65Q74,80,57,86.5Q40,93,27.5,80Q15,67,15,50Q15,33,28,22.5Q41,12,58,15Q75,18,85.5,34Q96,50,85,65Z" stroke="none" stroke-width="0" fill="#978ee5"/><path d="M80.5,65Q74,80,58,83.5Q42,87,23.5,79.5Q5,72,9,52Q13,32,27.5,23.5Q42,15,57,18.5Q72,22,79.5,36Q87,50,80.5,65Z" stroke="none" stroke-width="0" fill="#958ce5"/><path d="M86.5,68Q79,86,60.5,85.5Q42,85,29,76Q16,67,11.5,48Q7,29,24,21Q41,13,58.5,15.5Q76,18,85,34Q94,50,86.5,68Z" stroke="none" stroke-width="0" fill="#938ae5"/><path d="M83.5,67.5Q78,85,59,90Q40,95,26.5,81.5Q13,68,13.5,50.5Q14,33,26.5,18.5Q39,4,59,9Q79,14,84,32Q89,50,83.5,67.5Z" stroke="none" stroke-width="0" fill="#9188e5"/><path d="M87.5,66Q76,82,58,88Q40,94,24.5,82Q9,70,13,52Q17,34,29,23Q41,12,58,15.5Q75,19,87,34.5Q99,50,87.5,66Z" stroke="none" stroke-width="0" fill="#8f86e5"/><path d="M83,64Q72,78,56.5,83.5Q41,89,29.5,77.5Q18,66,12.5,47.5Q7,29,24.5,21.5Q42,14,61.5,13Q81,12,87.5,31Q94,50,83,64Z" stroke="none" stroke-width="0" fill="#8d84e5"/><path d="M86,66Q75,82,58,86Q41,90,26,79.5Q11,69,14.5,52Q18,35,30,24Q42,13,57.5,17Q73,21,85,35.5Q97,50,86,66Z" stroke="none" stroke-width="0" fill="#8b82e5"/><path d="M83.5,64Q72,78,56,86.5Q40,95,28.5,80.5Q17,66,15,49Q13,32,26.5,18.5Q40,5,60,8.5Q80,12,87.5,31Q95,50,83.5,64Z" stroke="none" stroke-width="0" fill="#8980e5"/><path d="M87,68.5Q80,87,60.5,87.5Q41,88,25,79Q9,70,8.5,50Q8,30,24.5,19.5Q41,9,57,15Q73,21,83.5,35.5Q94,50,87,68.5Z" stroke="none" stroke-width="0" fill="#877ee5"/><path d="M85.5,65.5Q75,81,58,85.5Q41,90,29.5,77.5Q18,65,17,49.5Q16,34,27.5,18Q39,2,56.5,10.5Q74,19,85,34.5Q96,50,85.5,65.5Z" stroke="none" stroke-width="0" fill="#857ce5"/><path d="M87,66Q76,82,59,84.5Q42,87,27.5,77.5Q13,68,14.5,51Q16,34,27.5,19Q39,4,58.5,9.5Q78,15,88,32.5Q98,50,87,66Z" stroke="none" stroke-width="0" fill="#837ae5"/><path d="M87,68.5Q80,87,60,90Q40,93,24,81.5Q8,70,13,52Q18,34,29,20Q40,6,58.5,11Q77,16,85.5,33Q94,50,87,68.5Z" stroke="none" stroke-width="0" fill="#8178e5"/><path d="M84,66.5Q77,83,58,91Q39,99,26.5,83Q14,67,15.5,50.5Q17,34,29,23Q41,12,60.5,12Q80,12,85.5,31Q91,50,84,66.5Z" stroke="none" stroke-width="0" fill="#7f76e5"/><path d="M82,65Q74,80,57.5,85.5Q41,91,27,79.5Q13,68,15,51Q17,34,29.5,23.5Q42,13,59,15.5Q76,18,83,34Q90,50,82,65Z" stroke="none" stroke-width="0" fill="#7d74e5"/><path d="M81.5,64Q72,78,56,85.5Q40,93,27,80Q14,67,13.5,49.5Q13,32,27,22.5Q41,13,59.5,13.5Q78,14,84.5,32Q91,50,81.5,64Z" stroke="none" stroke-width="0" fill="#7b72e5"/><path d="M84.5,66Q76,82,58.5,85.5Q41,89,28,78Q15,67,16,50.5Q17,34,29,23.5Q41,13,59,14.5Q77,16,85,33Q93,50,84.5,66Z" stroke="none" stroke-width="0" fill="#7970e5"/><path d="M81.5,67Q77,84,59,87.5Q41,91,25.5,80Q10,69,11,50.5Q12,32,25.5,18Q39,4,56,12.5Q73,21,79.5,35.5Q86,50,81.5,67Z" stroke="none" stroke-width="0" fill="#776ee5"/><path d="M90,68.5Q80,87,60,90.5Q40,94,22.5,82.5Q5,71,10,52Q15,33,28,21.5Q41,10,59.5,12.5Q78,15,89,32.5Q100,50,90,68.5Z" stroke="none" stroke-width="0" fill="#756ce5"/><path d="M83,65Q74,80,57.5,85Q41,90,24.5,80Q8,70,9,50.5Q10,31,26,23.5Q42,16,59.5,16Q77,16,84.5,33Q92,50,83,65Z" stroke="none" stroke-width="0" fill="#736ae5"/><path d="M85,64.5Q73,79,57.5,82Q42,85,26,77Q10,69,10,50Q10,31,26,22.5Q42,14,59.5,15.5Q77,17,87,33.5Q97,50,85,64.5Z" stroke="none" stroke-width="0" fill="#7168e5"/><path d="M85,65Q74,80,57,86.5Q40,93,25.5,81Q11,69,8.5,49Q6,29,24,21.5Q42,14,59,16Q76,18,86,34Q96,50,85,65Z" stroke="none" stroke-width="0" fill="#6f66e5"/><path d="M86.5,68Q78,86,59,90Q40,94,27,80.5Q14,67,15.5,50.5Q17,34,29,23Q41,12,58,15Q75,18,85,34Q95,50,86.5,68Z" stroke="none" stroke-width="0" fill="#6d64e5"/><path d="M86,68.5Q80,87,60.5,89Q41,91,26,80Q11,69,8,48.5Q5,28,23,19.5Q41,11,58,15Q75,19,83.5,34.5Q92,50,86,68.5Z" stroke="none" stroke-width="0" fill="#6b62e5"/><path d="M86,69Q80,88,60.5,89Q41,90,26.5,79Q12,68,9,48.5Q6,29,23,17.5Q40,6,56,14Q72,22,82,36Q92,50,86,69Z" stroke="none" stroke-width="0" fill="#6960e5"/><path d="M86.5,68.5Q80,87,60.5,89Q41,91,29.5,78Q18,65,12,47Q6,29,23.5,20.5Q41,12,58.5,14.5Q76,17,84.5,33.5Q93,50,86.5,68.5Z" stroke="none" stroke-width="0" fill="#675ee5"/><path d="M83,64Q72,78,56,85.5Q40,93,29,79.5Q18,66,13,48Q8,30,25,23Q42,16,59,16.5Q76,17,85,33.5Q94,50,83,64Z" stroke="none" stroke-width="0" fill="#655ce5"/><path d="M89,69Q80,88,60,91Q40,94,23.5,82.5Q7,71,8.5,51Q10,31,25,17.5Q40,4,58,11Q76,18,87,34Q98,50,89,69Z" stroke="none" stroke-width="0" fill="#635ae5"/><path d="M84,67.5Q78,85,59.5,86Q41,87,26.5,77.5Q12,68,13.5,50.5Q15,33,27.5,19Q40,5,60.5,8Q81,11,85.5,30.5Q90,50,84,67.5Z" stroke="none" stroke-width="0" fill="#6158e5"/><path d="M82.5,66.5Q76,83,58.5,85.5Q41,88,26.5,78Q12,68,14.5,51Q17,34,29,21Q41,8,60.5,10.5Q80,13,84.5,31.5Q89,50,82.5,66.5Z" stroke="none" stroke-width="0" fill="#5f56e5"/><path d="M85.5,67.5Q78,85,60,85.5Q42,86,25,78Q8,70,9,50.5Q10,31,25.5,21Q41,11,60,12Q79,13,86,31.5Q93,50,85.5,67.5Z" stroke="none" stroke-width="0" fill="#5d54e5"/><path d="M84.5,66Q76,82,59,83Q42,84,29.5,75Q17,66,15.5,49Q14,32,27.5,22Q41,12,59,14Q77,16,85,33Q93,50,84.5,66Z" stroke="none" stroke-width="0" fill="#5b52e5"/><path d="M89,69Q81,88,60.5,91Q40,94,25,81.5Q10,69,7.5,49Q5,29,23,20Q41,11,57,16Q73,21,85,35.5Q97,50,89,69Z" stroke="none" stroke-width="0" fill="#5950e5"/><path d="M84,68.5Q79,87,59.5,89.5Q40,92,23.5,81Q7,70,8,50Q9,30,24.5,17.5Q40,5,60,8.5Q80,12,84.5,31Q89,50,84,68.5Z" stroke="none" stroke-width="0" fill="#574ee5"/><path d="M87.5,66Q75,82,57,89.5Q39,97,28.5,81.5Q18,66,12,47.5Q6,29,22.5,16Q39,3,58,9.5Q77,16,88.5,33Q100,50,87.5,66Z" stroke="none" stroke-width="0" fill="#554ce5"/><path d="M80.5,66.5Q76,83,59,84.5Q42,86,25.5,78Q9,70,8.5,50Q8,30,24.5,20Q41,10,56.5,16.5Q72,23,78.5,36.5Q85,50,80.5,66.5Z" stroke="none" stroke-width="0" fill="#534ae5"/><path d="M88,67Q77,84,59,87.5Q41,91,26,80Q11,69,9,49Q7,29,24,19.5Q41,10,57,16Q73,22,86,36Q99,50,88,67Z" stroke="none" stroke-width="0" fill="#5148e5"/></svg>